{"title":"Struck By Lightning 2012 BRRIP Xvid AC3 -BHRG","uid":8298825,"size":1525756231,"categoryP":"video","categoryS":"movies","magnet":"?xt=urn:btih:ca2257e725d876f138d64eba3836620d3cc9ea6f&amp;dn=Struck+By+Lightning+2012+BRRIP+Xvid+AC3+-BHRG&amp;tr=udp%3A%2F%2Ftracker.openbittorrent.com%3A80&amp;tr=udp%3A%2F%2Fopen.demonii.com%3A1337&amp;tr=udp%3A%2F%2Ftracker.coppersurfer.tk%3A6969&amp;tr=udp%3A%2F%2Fexodus.desync.com%3A6969","seeders":1,"leechers":0,"uploader":"Gh0stNet","files":3,"time":1364172825,"description":"\tFile size                                : 1.40 GiB\nDuration                                 : 1h 23mn\nOverall bit rate                         : 2 393 Kbps\n\nVideo\nID                                       : 0\nFormat                                   : MPEG-4 Visual\nFormat profile                           : Advanced Simple@L5\nFormat settings, BVOP                    : 2\nFormat settings, QPel                    : No\nFormat settings, GMC                     : No warppoints\nFormat settings, Matrix                  : Default (H.263)\nCodec ID                                 : XVID\nCodec ID/Hint                            : XviD\nDuration                                 : 1h 23mn\nBit rate                                 : 1 937 Kbps\nWidth                                    : 720 pixels\nHeight                                   : 400 pixels\nDisplay aspect ratio                     : 16:9\nFrame rate                               : 23.976 fps\nColor space                              : YUV\nChroma subsampling                       : 4:2:0\nBit depth                                : 8 bits\nScan type                                : Progressive\nCompression mode                         : Lossy\nBits/(Pixel*Frame)                       : 0.281\nStream size                              : 1.13 GiB (81%)\nWriting library                          : XviD 1.2.1 (UTC 2008-12-04)\n\nAudio\nID                                       : 1\nFormat                                   : AC-3\nFormat/Info                              : Audio Coding 3\nMode extension                           : CM (complete main)\nFormat settings, Endianness              : Big\nCodec ID                                 : 2000\nDuration                                 : 1h 23mn\nBit rate mode                            : Constant\nBit rate                                 : 448 Kbps\nChannel(s)                               : 6 channels\nChannel positions                        : Front: L C R, Side: L R, LFE\nSampling rate                            : 48.0 KHz\nBit depth                                : 16 bits\nCompression mode                         : Lossy\nStream size                              : 268 MiB (19%)\nAlignment                                : Aligned on interleaves\nInterleave, duration                     : 64 ms (1.53 video frames)\nInterleave, preload duration             : 192 ms\nTitle                                    : Struck.by.Lightning.2012.LIMITED.720p.BluRay.X264-AMIABLE - [1] English\n\n\n\n\nsource &gt;&gt;&gt;&gt;&gt;&gt;Struck.by.Lightning.2012.LIMITED.720p.BluRay.X264-AMIABLE Thanks\n\nsample provided\n","torrent":{"xt":"urn:btih:ca2257e725d876f138d64eba3836620d3cc9ea6f","amp;dn":"Struck+By+Lightning+2012+BRRIP+Xvid+AC3+-BHRG","amp;tr":["udp%3A%2F%2Ftracker.openbittorrent.com%3A80","udp%3A%2F%2Fopen.demonii.com%3A1337","udp%3A%2F%2Ftracker.coppersurfer.tk%3A6969","udp%3A%2F%2Fexodus.desync.com%3A6969"],"infoHash":"ca2257e725d876f138d64eba3836620d3cc9ea6f","infoHashBuffer":{"type":"Buffer","data":[202,34,87,231,37,216,118,241,56,214,78,186,56,54,98,13,60,201,234,111]},"announce":[],"urlList":[]}}